<svg xmlns="http://www.w3.org/2000/svg" xmlns:xlink="http://www.w3.org/1999/xlink" width="64" height="64"><defs><path id="a" d="M.575 20.046h13.404V.843H.575v19.203z"/><path id="c" d="M12.398.765H.647v11.772h11.751V.765z"/></defs><g fill="none" fill-rule="evenodd"><path fill="#60413E" d="m40.373 29.672-.113-.078a2.304 2.304 0 0 1-.593-3.192L51.899 8.547a2.296 2.296 0 0 1 3.186-.594l.114.078a2.305 2.305 0 0 1 .592 3.192L43.56 29.079a2.296 2.296 0 0 1-3.186.593"/><path fill="#2E2E30" d="M53.795 8.86a.976.976 0 0 0-.819.427L40.742 27.142a.99.99 0 0 0 .256 1.374l.111.077s.002 0 .003.002a.987.987 0 0 0 1.372-.257l12.232-17.855a.992.992 0 0 0-.256-1.374l-.115-.079a.964.964 0 0 0-.55-.17m-12.13 22.52c-.701 0-1.409-.203-2.027-.628l-.114-.078a3.613 3.613 0 0 1-.934-5.011L50.824 7.807a3.569 3.569 0 0 1 2.307-1.501 3.574 3.574 0 0 1 2.693.569l.114.078a3.613 3.613 0 0 1 .93 5.01L44.635 29.817a3.595 3.595 0 0 1-2.97 1.563"/><path fill="#5D5D5E" d="M57.453 25.598H6.02a2.717 2.717 0 0 1-2.715-2.72v-.448a2.717 2.717 0 0 1 2.715-2.72h51.433a2.717 2.717 0 0 1 2.715 2.72v.449a2.717 2.717 0 0 1-2.715 2.719"/><path fill="#2E2E30" d="M6.02 21.018c-.778 0-1.41.634-1.41 1.413v.448c0 .778.632 1.412 1.41 1.412h51.433c.778 0 1.41-.634 1.41-1.412v-.448c0-.78-.632-1.413-1.41-1.413H6.02Zm51.433 5.887H6.02A4.027 4.027 0 0 1 2 22.88v-.448a4.028 4.028 0 0 1 4.02-4.028h51.433a4.028 4.028 0 0 1 4.02 4.028v.448a4.027 4.027 0 0 1-4.02 4.026Z"/><path fill="#5D5D5E" d="m11.38 60.263-.174-.048a3.008 3.008 0 0 1-2.094-3.686l1.343-4.896a3.002 3.002 0 0 1 3.679-2.097l.174.047a3.007 3.007 0 0 1 2.093 3.686l-1.342 4.896a3.002 3.002 0 0 1-3.68 2.098"/><path fill="#2E2E30" d="M11.727 59.002A1.69 1.69 0 0 0 13.8 57.82l1.342-4.896c.118-.433.06-.888-.164-1.283a1.681 1.681 0 0 0-1.017-.796l-.174-.048a1.686 1.686 0 0 0-1.28.164 1.68 1.68 0 0 0-.795 1.02l-1.343 4.896a1.694 1.694 0 0 0 1.182 2.079l.175.047Zm.444 2.676c-.376 0-.757-.05-1.137-.154l-.175-.049a4.311 4.311 0 0 1-3.005-5.292l1.342-4.897a4.272 4.272 0 0 1 2.02-2.598c1-.57 2.16-.717 3.264-.413l.173.048a4.27 4.27 0 0 1 2.595 2.024 4.287 4.287 0 0 1 .411 3.27l-1.341 4.895a4.308 4.308 0 0 1-4.147 3.166Z"/><path fill="#5D5D5E" d="m52.094 60.263.173-.048a3.008 3.008 0 0 0 2.094-3.686l-1.343-4.896a3.002 3.002 0 0 0-3.679-2.097l-.174.047a3.007 3.007 0 0 0-2.093 3.686l1.342 4.896a3.002 3.002 0 0 0 3.68 2.098"/><path fill="#2E2E30" d="M50.128 50.736c-.148 0-.298.02-.444.06l-.173.048a1.694 1.694 0 0 0-1.18 2.08l1.342 4.895a1.686 1.686 0 0 0 2.075 1.183l.171-.047c.435-.12.796-.403 1.02-.797.223-.394.283-.85.163-1.283L51.76 51.98a1.68 1.68 0 0 0-.795-1.02 1.688 1.688 0 0 0-.837-.224m1.174 10.942a4.308 4.308 0 0 1-4.146-3.167l-1.343-4.895a4.313 4.313 0 0 1 3.006-5.293l.173-.048a4.257 4.257 0 0 1 3.264.413c1 .57 1.717 1.493 2.02 2.599l1.343 4.896a4.288 4.288 0 0 1-.411 3.268 4.268 4.268 0 0 1-2.596 2.025l-.17.047h-.003c-.379.105-.76.155-1.137.155"/><path fill="#5D5D5E" d="M6.722 25.598A26.012 26.012 0 0 0 4.24 36.695c0 14.766 12.31 20.295 27.496 20.295 15.185 0 27.496-5.53 27.496-20.295 0-3.96-.893-7.716-2.482-11.097H6.721Z"/><path fill="#2E2E30" d="M7.565 26.905a24.558 24.558 0 0 0-2.02 9.79c0 16.521 16.41 18.988 26.192 18.988 9.781 0 26.19-2.467 26.19-18.988 0-3.392-.679-6.682-2.019-9.79H7.565Zm24.172 31.393c-18.304 0-28.801-7.874-28.801-21.603 0-4.055.877-7.976 2.605-11.654.216-.459.676-.75 1.181-.75h50.03c.505 0 .965.291 1.18.75a27.216 27.216 0 0 1 2.606 11.654c0 13.729-10.498 21.603-28.801 21.603Z"/><path fill="#5D5D5E" d="M6.722 25.598A26.012 26.012 0 0 0 4.24 36.695c0 14.766 12.31 20.295 27.496 20.295 15.185 0 27.496-5.53 27.496-20.295 0-3.96-.893-7.716-2.482-11.097H6.721Z"/><path fill="#2E2E30" d="M7.565 26.905a24.558 24.558 0 0 0-2.02 9.79c0 16.521 16.41 18.988 26.192 18.988 9.781 0 26.19-2.467 26.19-18.988 0-3.392-.679-6.682-2.019-9.79H7.565Zm24.172 31.393c-18.304 0-28.801-7.874-28.801-21.603 0-4.055.877-7.976 2.605-11.654.216-.459.676-.75 1.181-.75h50.03c.505 0 .965.291 1.18.75a27.216 27.216 0 0 1 2.606 11.654c0 13.729-10.498 21.603-28.801 21.603Z"/><path fill="#010202" d="M57.453 19.71h-6.96a2.717 2.717 0 0 1 2.715 2.72v.449a2.717 2.717 0 0 1-2.715 2.719h-.702a26.012 26.012 0 0 1 2.481 11.097c0 13.619-10.475 19.376-24.016 20.189 1.141.069 2.3.106 3.48.106 15.187 0 27.496-5.528 27.496-20.295 0-3.96-.892-7.716-2.48-11.097h.701a2.717 2.717 0 0 0 2.715-2.72v-.448a2.717 2.717 0 0 0-2.715-2.72" opacity=".3"/><path fill="#F27721" d="M27.663 56.46a4.256 4.256 0 0 1-4.252 4.26 4.256 4.256 0 0 1-4.252-4.26c0-2.352 4.252-8.84 4.252-8.84s4.252 6.488 4.252 8.84"/><path fill="#2E2E30" d="M23.411 50.081c-1.454 2.422-2.947 5.305-2.947 6.38a2.953 2.953 0 0 0 2.947 2.951 2.953 2.953 0 0 0 2.947-2.952c0-1.074-1.493-3.957-2.947-6.379m0 11.946c-3.064 0-5.557-2.497-5.557-5.567 0-2.611 3.72-8.42 4.466-9.557a1.306 1.306 0 0 1 2.182 0c.746 1.138 4.466 6.946 4.466 9.557 0 3.07-2.493 5.567-5.557 5.567"/><path fill="#F27721" d="M44.314 56.46a4.256 4.256 0 0 1-4.252 4.26 4.256 4.256 0 0 1-4.252-4.26c0-2.352 4.252-8.84 4.252-8.84s4.252 6.488 4.252 8.84"/><path fill="#2E2E30" d="M40.062 50.081c-1.454 2.422-2.947 5.305-2.947 6.38a2.953 2.953 0 0 0 2.947 2.951 2.953 2.953 0 0 0 2.947-2.952c0-1.074-1.493-3.957-2.947-6.379m0 11.946c-3.064 0-5.557-2.497-5.557-5.567 0-2.611 3.72-8.42 4.466-9.557a1.306 1.306 0 0 1 2.182 0c.746 1.138 4.466 6.946 4.466 9.557 0 3.07-2.493 5.567-5.557 5.567"/><path fill="#F27721" d="M37.294 57.017a5.401 5.401 0 0 1-5.397 5.407 5.401 5.401 0 0 1-5.396-5.407c0-2.986 5.396-11.219 5.396-11.219s5.397 8.233 5.397 11.22"/><g transform="translate(24.62 43.685)"><mask id="b" fill="#fff"><use xlink:href="#a"/></mask><path fill="#2E2E30" d="M7.277 4.559c-1.958 3.209-4.092 7.273-4.092 8.773a4.1 4.1 0 0 0 4.092 4.1 4.1 4.1 0 0 0 4.092-4.1c0-1.502-2.134-5.565-4.092-8.773m0 15.488c-3.695 0-6.702-3.013-6.702-6.715 0-3.214 4.674-10.507 5.611-11.936.483-.737 1.7-.737 2.182 0 .937 1.43 5.61 8.722 5.61 11.936 0 3.702-3.006 6.715-6.7 6.715" mask="url(#b)"/></g><path fill="#010202" d="M40.062 56.362c-1.3 0-2.45-.597-3.23-1.52a5.394 5.394 0 0 1-4.934 3.224 5.393 5.393 0 0 1-5.04-3.487 4.235 4.235 0 0 1-3.447 1.783c-1.563 0-2.914-.854-3.652-2.112-.36.871-.6 1.657-.6 2.21a4.256 4.256 0 0 0 4.252 4.26 4.235 4.235 0 0 0 3.447-1.783 5.393 5.393 0 0 0 5.04 3.486 5.394 5.394 0 0 0 4.934-3.223c.78.923 1.93 1.52 3.23 1.52a4.256 4.256 0 0 0 4.252-4.26c0-.553-.24-1.339-.6-2.21-.738 1.258-2.09 2.112-3.652 2.112" opacity=".3"/><path fill="#C5DA59" d="M16.473 11.845a3.277 3.277 0 0 1-3.275 3.28 3.278 3.278 0 0 1-3.276-3.28 3.278 3.278 0 0 1 3.276-3.28 3.277 3.277 0 0 1 3.275 3.28"/><path fill="#2E2E30" d="M13.197 9.872a1.974 1.974 0 0 0 0 3.947 1.974 1.974 0 0 0 0-3.947m0 6.562a4.59 4.59 0 0 1-4.58-4.588 4.59 4.59 0 0 1 4.58-4.59 4.59 4.59 0 0 1 4.58 4.59 4.59 4.59 0 0 1-4.58 4.588"/><path fill="#C5DA59" d="M32.233 6.757a4.574 4.574 0 0 1-4.57 4.579 4.574 4.574 0 0 1-4.57-4.579 4.574 4.574 0 0 1 4.57-4.578c2.524 0 4.57 2.05 4.57 4.578"/><g transform="translate(21.14 .106)"><mask id="d" fill="#fff"><use xlink:href="#c"/></mask><path fill="#2E2E30" d="M6.523 3.38a3.272 3.272 0 0 0 0 6.542 3.272 3.272 0 0 0 0-6.542m0 9.157c-3.24 0-5.876-2.64-5.876-5.886C.647 3.406 3.283.765 6.523.765s5.875 2.641 5.875 5.886c0 3.246-2.635 5.886-5.875 5.886" mask="url(#d)"/></g><path fill="#C5DA59" d="M31.726 19.71H8.841c4.308 0 6.119 7.18 6.119 7.18v12.29c0 1.54 1.257 2.8 2.794 2.8a2.805 2.805 0 0 0 2.795-2.8V28.047c.28-1.248 1.467-2.19 2.794-2.19s2.514.942 2.794 2.19v4.124c0 1.54 1.258 2.8 2.794 2.8a2.805 2.805 0 0 0 2.795-2.8v-5.28s1.811-7.18 6.119-7.18h-6.119Z"/><path fill="#2E2E30" d="M13.563 21.018c1.822 2.311 2.61 5.348 2.663 5.552.026.105.039.212.039.32v12.29c0 .823.668 1.492 1.49 1.492.821 0 1.489-.669 1.489-1.492V28.047c0-.097.011-.193.031-.288.418-1.859 2.129-3.209 4.067-3.209 1.94 0 3.65 1.35 4.069 3.21.02.094.03.19.03.287v4.124c0 .823.669 1.492 1.49 1.492.822 0 1.49-.669 1.49-1.492v-5.28c0-.11.014-.22.04-.325.129-.503.912-3.355 2.635-5.548H13.563Zm4.191 22.27c-2.26 0-4.1-1.843-4.1-4.108V27.06c-.496-1.819-2.202-6.042-4.813-6.042-.72 0-1.305-.585-1.305-1.308 0-.722.585-1.307 1.305-1.307h29.004a1.306 1.306 0 0 1 0 2.615c-2.612 0-4.317 4.223-4.814 6.042v5.111a4.107 4.107 0 0 1-4.1 4.107 4.107 4.107 0 0 1-4.1-4.107v-3.953c-.194-.599-.825-1.053-1.489-1.053-.663 0-1.293.454-1.488 1.053V39.18a4.107 4.107 0 0 1-4.1 4.107Z"/></g></svg>