<svg xmlns="http://www.w3.org/2000/svg" width="64" height="64"><g fill="none" fill-rule="evenodd"><path fill="#5D5D5E" d="M62.652 50.903c0 4.763-13.733 9.49-30.673 9.49-16.939 0-30.67-4.727-30.67-9.49 0-4.764 13.731-7.759 30.67-7.759 16.94 0 30.673 2.995 30.673 7.759"/><path fill="#2E2E30" d="M31.98 44.444c-18.138 0-29.365 3.352-29.365 6.458 0 3.262 11.711 8.192 29.365 8.192 17.653 0 29.364-4.93 29.364-8.192 0-3.106-11.226-6.458-29.364-6.458m0 17.25C12.227 61.693 0 56.091 0 50.901c0-6.685 17.227-9.058 31.98-9.058 14.752 0 31.979 2.373 31.979 9.058 0 5.19-12.227 10.791-31.979 10.791"/><path fill="#010202" d="M31.98 43.144c-4.17 0-8.142.182-11.766.527 11.099 1.055 18.906 3.64 18.906 7.231 0 3.592-7.807 7.162-18.906 8.702 3.624.502 7.596.79 11.766.79 16.94 0 30.672-4.728 30.672-9.492 0-4.763-13.732-7.758-30.672-7.758" opacity=".3"/><path fill="#5D5D5E" d="M49.555 17.42s-10-11.063-14.682-14.26c-2.555-1.65-5.309-.865-6.779 1.773-11.81 20.107-13.714 42.5-13.714 42.5 0 2.943 7.88 5.33 17.6 5.33 9.72 0 17.6-2.387 17.6-5.33 0 0-1.676-11.155-9.308-27.9 0 0 5.2 1.39 7.26 1.764 2.234.406 3.646-2.3 2.023-3.877"/><path fill="#2E2E30" d="M15.69 47.474c.11 1.378 5.852 3.988 16.29 3.988 10.36 0 16.091-2.57 16.288-3.956-.21-1.247-2.15-11.996-9.187-27.437a1.295 1.295 0 0 1 .195-1.377 1.312 1.312 0 0 1 1.336-.415c.05.014 5.17 1.381 7.155 1.741.68.125.984-.364 1.063-.515.078-.152.297-.68-.19-1.154-.02-.019-.039-.04-.058-.06-.1-.11-9.949-10.984-14.45-14.057-.877-.567-1.806-.764-2.663-.552-.897.223-1.67.873-2.23 1.883-11.223 19.105-13.42 40.53-13.55 41.91m16.29 6.589c-9.395 0-18.906-2.277-18.906-6.629 0-.036.001-.073.004-.109.02-.227 2.066-22.919 13.888-43.047.896-1.607 2.276-2.723 3.872-3.12 1.55-.383 3.24-.06 4.748.914 4.71 3.215 14.23 13.694 14.915 14.452 1.132 1.125 1.389 2.758.652 4.174-.745 1.432-2.26 2.167-3.855 1.879-1.122-.205-3.104-.689-4.73-1.102 6.683 15.325 8.24 25.328 8.306 25.767a1.3 1.3 0 0 1 .014.192c0 4.352-9.511 6.629-18.907 6.629"/><path fill="#BABABA" d="M49.58 47.433s-.283-2.172-1.143-5.886C44.46 42.834 38.263 44.19 31.98 44.19c-6.282 0-12.87-1.356-16.847-2.643-.574 3.655-.752 5.886-.752 5.886 0 2.943 7.88 5.33 17.6 5.33 9.72 0 17.6-2.387 17.6-5.33"/><path fill="#2E2E30" d="M15.69 47.47c.103 1.379 5.845 3.992 16.29 3.992 10.384 0 16.121-2.583 16.29-3.967-.06-.401-.29-1.923-.802-4.294-2.937.846-8.907 2.29-15.488 2.29-5.811 0-11.7-1.1-15.78-2.261a80.219 80.219 0 0 0-.51 4.24m16.29 6.591c-9.396 0-18.907-2.276-18.907-6.627 0-.035.001-.07.004-.103.008-.094.188-2.322.763-5.984.059-.377.281-.71.607-.908.327-.2.724-.246 1.09-.129 3.675 1.19 10.187 2.58 16.443 2.58 7.505 0 14.184-1.974 16.051-2.58.349-.112.73-.075 1.05.104.32.18.547.486.63.84.864 3.734 1.153 5.92 1.165 6.012.008.056.011.111.011.168 0 4.351-9.511 6.627-18.907 6.627"/><path fill="#F5B956" d="M35.657 53.628H28.2a2.445 2.445 0 0 1-2.451-2.437v-6.064a2.445 2.445 0 0 1 2.451-2.438h7.457a2.444 2.444 0 0 1 2.452 2.438v6.064a2.444 2.444 0 0 1-2.452 2.437"/><path fill="#2E2E30" d="M28.2 43.989c-.631 0-1.143.51-1.143 1.137v6.065a1.14 1.14 0 0 0 1.143 1.137h7.458c.63 0 1.144-.51 1.144-1.137v-6.065c0-.627-.514-1.137-1.144-1.137H28.2Zm7.458 10.939H28.2c-2.073 0-3.758-1.676-3.758-3.737v-6.065c0-2.06 1.685-3.737 3.758-3.737h7.458c2.073 0 3.758 1.677 3.758 3.737v6.065c0 2.061-1.685 3.737-3.758 3.737Z"/><path fill="#FEFEFE" d="M29.957 48.159h3.787"/><path fill="#2E2E30" d="M33.744 49.458h-3.787a1.303 1.303 0 0 1-1.308-1.3c0-.718.586-1.3 1.308-1.3h3.787c.722 0 1.308.582 1.308 1.3 0 .719-.586 1.3-1.308 1.3"/><path fill="#FEFEFE" d="M40.272 19.533s-4.421-1.19-7.954-3.51"/><path fill="#2E2E30" d="M40.273 20.833a1.31 1.31 0 0 1-.344-.046c-.187-.05-4.665-1.272-8.331-3.678a1.295 1.295 0 0 1-.371-1.8c.397-.601 1.21-.765 1.81-.37 3.308 2.17 7.535 3.328 7.577 3.34a1.3 1.3 0 0 1-.341 2.554"/><path fill="#010202" d="m42.536 24.747-.056-.131c-.32-.771-.65-1.555-.997-2.355-.038-.089-.08-.18-.118-.268-.166-.381-.333-.763-.505-1.152l-.009-.004c-.192-.435-.377-.861-.58-1.304 0 0 5.2 1.39 7.26 1.764 2.061.374 3.416-1.897 2.342-3.49-5.621-.55-13.455-1.516-18.023-2.94-2.506-.782-1.158.756 1.801 3.184 5.823 11.662 2.929 32.568 2.637 34.543 7.634-.582 13.292-2.669 13.292-5.16 0 0-1.34-8.884-7.046-22.687h.002" opacity=".3"/></g></svg>